<?xml version="1.0" encoding="UTF-8"?>
<svg id="Layer_1" xmlns="http://www.w3.org/2000/svg" version="1.1" viewBox="0 0 159.6 204.3">
  <!-- Generator: Adobe Illustrator 29.5.1, SVG Export Plug-In . SVG Version: 2.1.0 Build 141)  -->
  <defs>
    <style>
      .st0 {
        fill: #1d4ed8;
        stroke: #1d4ed8;
        stroke-miterlimit: 10;
        stroke-width: 4px;
      }
    </style>
  </defs>
  <path class="st0" d="M145.4,24.8c-3.8-6.4-7.8-16.7-12.2-21.5-8.5,12.8-16.2,29.1-23.6,42.9-.8,1.4-1.2,2.9.7,2.8,3.2,0,9.6,0,12.4,0,2.9,5,0,118,1,123.9-9.1-11.9-19.3-23.8-28.8-35.9-3.7-6-10.3-10.8-13.1-17.3-.2-2.2,2.6-3.4,4.1-4.8,3.6-3.1,7.3-7,11-10.4,5.4-3.9,3.4-9.2,3.8-15.2,0-8.4.3-18.4.4-26.7.3-2.2-1.4,0-2.9,1-4.6,3.7-13.9,11.4-16.3,13.3-2,1.1-3.7-3.7-5.2-5-8.3-10.2-16.4-19.9-24.5-30.2-7.9-8.6-14.1-19.7-24-26-8.9-3.2-18.1,1.1-20.6,11.1,0,6.3.2,135.9-.1,143-2.8,3.1-6.2,9.5-5.4,14.7-1.4,20.3,27.6,24.7,32,4.9,1.6-7.2,0-14.6-5.3-19.6-1.7-6,0-61.2-.6-97.7.3-15.2-.6-27.8.3-28,11.6,14.6,23.8,29.5,35.3,44.1,2.2,3.3,8.9,7.7,4.9,11.8-3.3,3.2-11.5,7-14,11.6-3.3,8.7,7.6,14.5,11.3,20.8,11.7,14.7,24.2,30.4,36.2,44.7,7.4,8,13.6,21.2,23.7,24.9,5.4.8,12.2-.1,14.9-5.9,4.8-13.3.9-113.8,2.4-147.2,3-.6,7.4,0,11.5-.3,2.5.2,3.7-.3,2.3-2.5-3.6-6.8-8-14.7-11.5-21.2h0c0-.1,0-.1,0-.1Z"/>
</svg>