<?xml version="1.0" encoding="UTF-8"?>
<svg id="Layer_1" data-name="Layer 1" xmlns="http://www.w3.org/2000/svg" viewBox="0 0 156.59 200.38">
  <defs>
    <style>
      .cls-1 {
        fill: #fff;
        stroke: #000;
        stroke-miterlimit: 10;
      }
    </style>
  </defs>
  <path class="cls-1" d="M143.95,22.36c-3.77-6.42-7.82-16.73-12.18-21.55-8.53,12.84-16.25,29.06-23.62,42.87-.77,1.36-1.19,2.9.7,2.79,3.19.08,9.59.01,12.43.07,2.89,4.95.07,117.96,1.01,123.92-9.13-11.95-19.29-23.81-28.83-35.9-3.71-5.97-10.34-10.81-13.07-17.27-.16-2.25,2.57-3.44,4.05-4.8,3.63-3.13,7.35-6.99,10.97-10.37,5.45-3.88,3.36-9.22,3.84-15.22.1-8.4.27-18.41.43-26.66.27-2.23-1.41-.04-2.87.98-4.59,3.74-13.89,11.38-16.29,13.31-2.01,1.13-3.69-3.68-5.23-4.98-8.29-10.18-16.38-19.9-24.52-30.23-7.94-8.6-14.1-19.69-24.03-25.99-8.87-3.19-18.15,1.1-20.58,11.06-.1,6.31.21,135.91-.13,143.03-2.83,3.07-6.25,9.5-5.4,14.72-1.36,20.28,27.6,24.74,31.97,4.85,1.6-7.24-.1-14.58-5.27-19.65-1.7-5.99-.09-61.16-.63-97.65.3-15.24-.6-27.78.34-28.04,11.62,14.6,23.8,29.47,35.3,44.14,2.15,3.26,8.89,7.74,4.89,11.78-3.33,3.15-11.52,6.99-14.03,11.62-3.31,8.69,7.59,14.46,11.3,20.85,11.74,14.74,24.16,30.39,36.21,44.7,7.37,8.02,13.6,21.2,23.66,24.91,5.4.78,12.18-.13,14.95-5.9,4.81-13.32.91-113.84,2.42-147.16,3.03-.58,7.44-.1,11.46-.34,2.53.15,3.67-.27,2.28-2.52-3.58-6.82-7.98-14.7-11.48-21.25l-.06-.11Z"/>
</svg>