<?xml version="1.0" encoding="UTF-8"?>
<svg id="Layer_1" data-name="Layer 1" xmlns="http://www.w3.org/2000/svg" viewBox="0 0 745 234.89">
  <defs>
    <style>
      .cls-1 {
        stroke: #fff;
        stroke-linecap: round;
        stroke-miterlimit: 10;
      }

      .cls-1, .cls-2 {
        fill: #fff;
      }
    </style>
  </defs>
  <path class="cls-2" d="M22,14.89l11,1,6,4,14,15,7,8,9,10,9,11,13,14,9,11,25.43-19.26-.42,20.28-.32,23.79c-.12,1.12,0-.14-.3,2.42l-.36.64-17.03,15.13-7,5,2,4,11,12,9,11,12,13,9,11,10,11,1,2V55.22s-19.64-.07-19.64-.07c9.25-17.97,21.71-37.31,31.58-54.93,2.9,4.78,13.54,21.54,15.33,26.48,4.62,7.91,11.88,20.03,16.38,28.11l-19.06.24-.59,167.84-4,8-8,4h-10l-6-3-13-14-9-11-12-13-9-11-10-11-7-8-11-13-11-12h0l-3.23-5.62c.64-2.58,1.82-4.64,2.64-6.7l18.59-12.68v-4l-10-11-9-11-11-12-9-11-9-10-5-6v147l6,7,2,5v11l-3,7-4,5-8,4h-11l-8-4-6-8-1-3v-12l4-8,3-3V28.89l4-8,5-4,6-2Z"/>
  <path class="cls-2" d="M241,102.89h12l11,4,6,5,5,8,2,7v15h-43l4,9,3,3,5,2,7-1,5-4,2-3,17,3-6,12-8,6-10,3h-10l-10-3-6-4-7-8-4-10-1-6v-8l3-12,6-9,6-5,6-3,5-1ZM243,117.89l-6,4-2,4v4h24l-1-6-5-5-2-1h-8Z"/>
  <path class="cls-2" d="M452,102.89h13l9,3,5,4,4,8,1,7v45h-16l-1-6-8,6-6,2h-7l-9-3-6-7-2-5v-12l5-8,10-5,21-4-1-7-3-2h-8l-4,4-2,4-15-1-1-1,1-8,4-6,6-5,10-3ZM459,140.89l-9,3-3,3v6l5,4,8-1,5-5,1-2v-8h-7Z"/>
  <path class="cls-2" d="M647,102.89h12l11,4,8,7,5,9,2,10v8l-3,12-6,9-7,6-11,4h-10l-10-3-9-7-5-8-3-14,1-13,4-10,7-8,9-5,5-1ZM648,118.89l-6,5-2,4-1,12,3,10,6,5,7,1,6-3,4-5,1-3v-15l-4-8-5-3h-9Z"/>
  <path class="cls-2" d="M276,103.89h22l7,10,5,8,12-18h21l-2,5-10,13-8,12,1,4,14,19,9,12v1h-23l-8-11-5-8v-2h-2l-2,5-10,16h-22l2-5,8-11,12-17-2-5-10-14-9-12v-2Z"/>
  <path class="cls-2" d="M720,102.89h10l7,3,5,5,3,7v52h-17l-1-44-3-5-2-1h-7l-5,5-1,2-1,43h-18v-65l1-1h17l1,5,7-5,4-1Z"/>
  <path class="cls-2" d="M333,78.89h69v16h-23v75h-19v-75h-27v-16Z"/>
  <path class="cls-2" d="M516,102.89h12l9,3,6,4,6,8,2,7v4h-18l-3-7-4-2h-8l-5,3-3,7v15l3,6,4,3,6,1,7-3,4-7h17l-1,8-4,8-8,7-6,3-5,1h-11l-11-4-8-7-5-10-2-11,1-13,4-10,8-9,8-4,5-1Z"/>
  <path class="cls-2" d="M577,85.89l2,1v16l11,1v15l-11,1v28l2,6,9,1v15l-3,1h-15l-6-3-4-6-1-3v-40h-8v-15h8v-11l11-5,5-2Z"/>
  <path class="cls-2" d="M418,102.89h9v18l-10,1-5,3h-2l-2,8-1,37h-17v-66h17v6l-1,2h2l2-5,8-4Z"/>
  <path class="cls-2" d="M597,103.89h18v66h-18v-66Z"/>
  <path class="cls-2" d="M601,79.89h9l5,4,1,2v7l-4,5-2,1h-8l-5-4-1-2v-8l5-5Z"/>
  <polygon class="cls-1" points="197.01 54.82 134.87 54.82 165.94 1 197.01 54.82"/>
</svg>